<svg width="15" height="16" viewBox="0 0 15 16" fill="none" xmlns="http://www.w3.org/2000/svg">
<path d="M4.44584 13.537C5.36941 14.1306 6.42542 14.4427 7.50096 14.44L4.44584 13.537ZM4.44584 13.537C4.40552 13.5149 4.36107 13.5029 4.31583 13.502M4.44584 13.537L4.31583 13.502M4.31583 13.502H4.24433H4.31583ZM5.75436 4.79056L5.75437 4.79056C5.74599 4.77419 5.73423 4.76144 5.72101 4.7529C5.70805 4.74453 5.69393 4.74032 5.67999 4.74C5.29661 4.74025 4.92727 4.90385 4.65318 5.19778C4.37869 5.49214 4.22249 5.89309 4.22082 6.3132C4.22087 7.70052 4.73229 9.02975 5.6407 10.0093C6.54889 10.9886 7.77924 11.5381 9.06102 11.54C9.06107 11.54 9.06112 11.54 9.06116 11.54M5.75436 4.79056L9.06102 11.64L9.06116 11.54M5.75436 4.79056L5.75513 4.79201L6.51507 6.2189C6.52982 6.24855 6.53773 6.2821 6.53773 6.3165C6.53773 6.35057 6.52997 6.38382 6.51549 6.41326L5.9061 7.50234C5.87561 7.55466 5.85827 7.61396 5.85522 7.67466C5.85218 7.73516 5.86341 7.79572 5.88816 7.85083C6.23546 8.68331 6.85508 9.35164 7.63149 9.72733C7.6848 9.75506 7.74427 9.76803 7.80422 9.76454C7.8644 9.76104 7.92222 9.74112 7.97224 9.70735L8.98326 9.05131C9.00867 9.03688 9.03645 9.02959 9.06427 9.02959C9.09241 9.02959 9.1205 9.03704 9.14614 9.0518L10.471 9.87008L10.471 9.87009L10.4725 9.87099C10.4859 9.87893 10.498 9.8911 10.5069 9.90702C10.5157 9.92281 10.5207 9.94134 10.5211 9.9607C10.5209 10.3806 10.3663 10.7821 10.093 11.0776C9.81991 11.3729 9.45091 11.5382 9.06728 11.54M5.75436 4.79056L9.06728 11.54M9.06116 11.54H9.06707M9.06116 11.54H9.06707M9.06707 11.54C9.06714 11.54 9.06721 11.54 9.06728 11.54M9.06707 11.54L9.06728 11.54M7.50098 0.9L7.50097 0.9C6.34406 0.899867 5.20786 1.22681 4.20603 1.8475C3.20428 2.46814 2.37226 3.36052 1.79244 4.43472C1.21263 5.50888 0.905077 6.72762 0.900062 7.96915C0.895101 9.19739 1.18641 10.4061 1.7456 11.4771L1.17053 13.6514L1.17045 13.6517C1.12877 13.8114 1.12733 13.98 1.16627 14.1404C1.20521 14.3008 1.2833 14.4479 1.39328 14.5664C1.50331 14.6849 1.64141 14.7704 1.79377 14.8133C1.94619 14.8562 2.1066 14.8546 2.25822 14.8087L2.25857 14.8086L4.26972 14.1918C5.13838 14.7161 6.1066 15.0224 7.10191 15.0871C8.11202 15.1527 9.12242 14.9676 10.0551 14.5463C10.9877 14.1251 11.8173 13.4792 12.4803 12.659C13.1434 11.8388 13.6222 10.8661 13.8805 9.81602C14.1387 8.766 14.1696 7.66625 13.9707 6.60142C13.7718 5.53659 13.3484 4.53467 12.7327 3.67302C12.117 2.81133 11.3253 2.11277 10.4182 1.63174C9.51101 1.15069 8.51293 0.900205 7.50098 0.9ZM7.50101 14.34L7.50071 14.34C6.44484 14.3426 5.40763 14.0363 4.4999 13.4529L4.50003 13.4527L4.49392 13.4493C4.43971 13.4196 4.37949 13.4033 4.31787 13.402L4.31787 13.402H4.31583H4.24433H4.22927L4.21488 13.4064L2.05774 14.0711C2.03198 14.0784 2.00504 14.0784 1.97931 14.071C1.95327 14.0634 1.92864 14.0484 1.90828 14.0265C1.88787 14.0045 1.8726 13.9765 1.86474 13.9449C1.85693 13.9134 1.85688 13.8803 1.86459 13.8489C1.86465 13.8486 1.8647 13.8484 1.86476 13.8482L2.4819 11.5257L2.48191 11.5257L2.48227 11.5242C2.50646 11.4274 2.49426 11.324 2.44757 11.2361L2.44758 11.2361L2.44686 11.2348C1.78436 10.0308 1.5099 8.62394 1.66696 7.23358C1.82401 5.84323 2.40356 4.54892 3.314 3.55194C4.22433 2.55508 5.4141 1.91158 6.69744 1.71994C7.9807 1.52832 9.28723 1.79896 10.4138 2.49069C11.5406 3.18252 12.4247 4.25717 12.9269 5.54844C13.4291 6.83976 13.5207 8.27412 13.1872 9.62767C12.8537 10.9812 12.1142 12.1766 11.0854 13.0284C10.0567 13.8801 8.79647 14.3407 7.50101 14.34ZM10.8364 9.21007L10.8358 9.20972L9.51004 8.39789C9.51 8.39786 9.50995 8.39784 9.50991 8.39781C9.37333 8.31359 9.21778 8.26959 9.05926 8.27099C8.9007 8.27239 8.74583 8.31915 8.61057 8.40579L8.61014 8.40607L7.76427 8.95393C7.28052 8.66996 6.88242 8.24027 6.6193 7.71596L7.13325 6.79576L7.13348 6.79535C7.21292 6.65152 7.25519 6.48809 7.25645 6.32171C7.25772 6.15535 7.21796 5.99126 7.14077 5.84612C7.14076 5.84609 7.14074 5.84606 7.14073 5.84604L6.38684 4.41831L6.38654 4.41775C6.316 4.28617 6.21411 4.17593 6.09034 4.09876C5.9665 4.02155 5.82537 3.98037 5.68114 3.98H5.68089C5.10139 3.98 4.54715 4.22746 4.13917 4.66544C3.73141 5.10318 3.50259 5.69566 3.5008 6.31271L3.5008 6.31289C3.49993 7.09781 3.64274 7.87536 3.9212 8.60115C4.19967 9.32694 4.60843 9.98697 5.12444 10.5433C5.64047 11.0997 6.25368 11.5415 6.92922 11.8431C7.60478 12.1446 8.32921 12.3 9.06102 12.3H9.06752L9.06786 12.3C9.64735 12.298 10.2008 12.0487 10.6075 11.6094C11.014 11.1703 11.2411 10.5771 11.2411 9.96L11.2411 9.95978C11.2408 9.80878 11.2036 9.66015 11.133 9.52869C11.0623 9.3972 10.9602 9.28708 10.8364 9.21007Z" fill="#F2F2F2" stroke="#F2F2F2" stroke-width="0.2"/>
</svg>
