<svg width="80" height="72" viewBox="0 0 80 72" fill="none" xmlns="http://www.w3.org/2000/svg">
    <path d="M25.4595 0.0601213C30.1603 -0.619302 35.1399 4.53632 36.574 11.6503C38.0082 18.7243 35.4187 25.0389 30.718 25.7583C26.0571 26.4777 21.0376 21.3221 19.5636 14.2081C18.0897 7.13411 20.7587 0.819476 25.4595 0.0601213ZM53.9429 0.0601213C58.6835 0.819476 61.3128 7.13411 59.9185 14.2081C58.4047 21.3221 53.4251 26.4777 48.7243 25.7583C43.9837 25.0389 41.3943 18.7243 42.8683 11.6503C44.3024 4.53632 49.282 -0.619302 53.9429 0.0601213ZM4.14672 18.4445C8.68813 16.4862 14.8629 20.0432 18.0897 26.2379C21.1173 32.5525 20.0815 39.1869 15.5799 41.1452C11.0784 43.1036 4.94346 39.5866 1.79634 33.3119C-1.35078 27.0372 -0.235349 20.3629 4.14672 18.4445ZM75.8533 18.4445C80.2354 20.3629 81.3508 27.0372 78.2037 33.3119C75.0565 39.5866 68.9216 43.1036 64.4201 41.1452C59.9185 39.1869 58.8827 32.5525 61.9103 26.2379C65.1371 20.0432 71.3119 16.4862 75.8533 18.4445ZM69.2005 61.5279C69.3599 65.2847 66.4916 69.4412 63.0656 70.9999C55.9348 74.2771 47.4894 67.4829 39.5618 67.4829C31.6342 67.4829 23.1091 74.5569 16.0978 70.9999C12.1141 69.0415 9.36536 63.8459 9.88324 59.5296C10.6003 53.5747 17.7311 50.3774 21.9538 46.0211C27.5709 40.3859 31.5546 29.7949 39.5618 29.7949C47.5292 29.7949 51.7519 40.226 57.1299 46.0211C61.5518 50.8969 68.9216 55.0134 69.2005 61.5279Z" fill="#F2F2F2"/>
</svg>