<svg width="39" height="37" viewBox="0 0 39 37" fill="none" xmlns="http://www.w3.org/2000/svg">
<path d="M12.3069 0.99713C14.5793 0.662619 16.9864 3.20096 17.6796 6.70348C18.3729 10.1863 17.1212 13.2953 14.8489 13.6495C12.5958 14.0037 10.1694 11.4653 9.45692 7.96282C8.74442 4.47997 10.0346 1.37099 12.3069 0.99713ZM26.0756 0.99713C28.3672 1.37099 29.6382 4.47997 28.9642 7.96282C28.2324 11.4653 25.8253 14.0037 23.553 13.6495C21.2614 13.2953 20.0097 10.1863 20.7222 6.70348C21.4155 3.20096 23.8226 0.662619 26.0756 0.99713ZM2.0045 10.0486C4.19978 9.08441 7.18461 10.8357 8.74442 13.8856C10.2079 16.9946 9.70726 20.261 7.53123 21.2252C5.3552 22.1893 2.38963 20.4578 0.868337 17.3685C-0.65296 14.2792 -0.113766 10.9931 2.0045 10.0486ZM36.667 10.0486C38.7852 10.9931 39.3244 14.2792 37.8031 17.3685C36.2818 20.4578 33.3162 22.1893 31.1402 21.2252C28.9642 20.261 28.4635 16.9946 29.927 13.8856C31.4868 10.8357 34.4717 9.08441 36.667 10.0486ZM33.451 31.2605C33.5281 33.1101 32.1416 35.1565 30.4855 35.9239C27.0385 37.5375 22.956 34.1924 19.1239 34.1924C15.2918 34.1924 11.1708 37.6752 7.78157 35.9239C5.85588 34.9598 4.52715 32.4017 4.77749 30.2766C5.12412 27.3447 8.57111 25.7706 10.6123 23.6258C13.3276 20.8513 15.2533 15.6369 19.1239 15.6369C22.9753 15.6369 25.0165 20.7726 27.6162 23.6258C29.7537 26.0264 33.3162 28.0531 33.451 31.2605Z" fill="#3AB1B9"/>
</svg>
