<svg xmlns="http://www.w3.org/2000/svg" xmlns:xlink="http://www.w3.org/1999/xlink" width="40" zoomAndPan="magnify" viewBox="0 0 30 30.000001" height="40" preserveAspectRatio="xMidYMid meet" version="1.0"><defs><clipPath id="3b684bc954"><path d="M 0.484375 1 L 29.515625 1 L 29.515625 28 L 0.484375 28 Z M 0.484375 1 " clip-rule="nonzero"/></clipPath></defs><g clip-path="url(#3b684bc954)"><path fill="#ffffff" d="M 9.648438 1.488281 C 11.339844 1.238281 13.128906 3.128906 13.644531 5.742188 C 14.160156 8.335938 13.230469 10.65625 11.539062 10.917969 C 9.863281 11.183594 8.054688 9.289062 7.527344 6.679688 C 6.996094 4.082031 7.957031 1.765625 9.648438 1.488281 Z M 19.894531 1.488281 C 21.597656 1.765625 22.542969 4.082031 22.042969 6.679688 C 21.5 9.289062 19.707031 11.183594 18.015625 10.917969 C 16.3125 10.65625 15.378906 8.335938 15.910156 5.742188 C 16.425781 3.128906 18.21875 1.238281 19.894531 1.488281 Z M 1.980469 8.234375 C 3.613281 7.515625 5.835938 8.820312 6.996094 11.09375 C 8.085938 13.414062 7.710938 15.847656 6.09375 16.566406 C 4.472656 17.285156 2.265625 15.992188 1.132812 13.691406 C 0.00390625 11.386719 0.402344 8.9375 1.980469 8.234375 Z M 27.777344 8.234375 C 29.351562 8.9375 29.753906 11.386719 28.621094 13.691406 C 27.488281 15.992188 25.28125 17.285156 23.664062 16.566406 C 22.042969 15.847656 21.671875 13.414062 22.757812 11.09375 C 23.921875 8.820312 26.140625 7.515625 27.777344 8.234375 Z M 25.382812 24.046875 C 25.441406 25.425781 24.40625 26.949219 23.175781 27.523438 C 20.609375 28.726562 17.570312 26.230469 14.71875 26.230469 C 11.867188 26.230469 8.800781 28.828125 6.277344 27.523438 C 4.847656 26.804688 3.855469 24.898438 4.042969 23.3125 C 4.300781 21.128906 6.867188 19.953125 8.386719 18.355469 C 10.40625 16.289062 11.839844 12.402344 14.71875 12.402344 C 17.585938 12.402344 19.105469 16.230469 21.039062 18.355469 C 22.628906 20.144531 25.28125 21.65625 25.382812 24.046875 Z M 25.382812 24.046875 " fill-opacity="1" fill-rule="nonzero"/></g></svg>