<svg width="12" height="14" viewBox="0 0 12 14" fill="none" xmlns="http://www.w3.org/2000/svg">
<path d="M7.40435 7.07658C7.01572 7.44623 6.53848 7.63373 6.00013 7.63376L7.40435 7.07658ZM7.40435 7.07658C7.79368 6.70626 8.00058 6.24102 8 5.70676M7.40435 7.07658L8 5.70676M8 5.70676C7.99994 5.17238 7.79295 4.70706 7.4036 4.33672C7.01496 3.96706 6.53781 3.77968 5.99961 3.78025M8 5.70676L6 7.63376C5.46196 7.63424 4.98494 7.44686 4.5964 7.07729C4.20705 6.70695 4.00006 6.24163 4 5.70725M8 5.70676C8 5.70684 8 5.70692 8 5.70701H7.5L8 5.70676ZM5.99961 3.78025C5.99974 3.78025 5.99987 3.78025 6 3.78025V4.28025L5.99942 3.78026C5.99948 3.78026 5.99955 3.78025 5.99961 3.78025ZM5.99961 3.78025C5.46136 3.78035 4.98421 3.96785 4.59565 4.33743C4.20632 4.70775 3.99942 5.17299 4 5.70725M4 5.70725C4 5.70717 4 5.70709 4 5.70701H4.5L4 5.70764C4 5.70751 4 5.70738 4 5.70725ZM11.5 5.84954V5.84968C11.5 6.85755 11.1023 7.98765 10.2375 9.2503C9.37347 10.5118 8.04985 11.9005 6.24761 13.4153C6.2203 13.4362 6.18333 13.4573 6.13202 13.4756C6.08259 13.4932 6.0393 13.5 6 13.5C5.9607 13.5 5.91741 13.4932 5.86798 13.4756C5.81668 13.4573 5.77971 13.4362 5.7524 13.4153C3.95017 11.9 2.62654 10.5111 1.76252 9.24959C0.897688 7.9869 0.5 6.85704 0.5 5.84968C0.5 4.19228 1.05398 2.91518 2.13944 1.96317C3.25586 0.983994 4.5358 0.5 6 0.5C7.46474 0.5 8.74492 0.984022 9.86131 1.96317C10.9467 2.91514 11.5005 4.19218 11.5 5.84954Z" stroke="#F2F2F2"/>
</svg>
